<?xml version="1.0" encoding="utf-8"?>
<!-- Generator: Adobe Illustrator 22.0.0, SVG Export Plug-In . SVG Version: 6.00 Build 0)  -->
<svg version="1.1" id="Layer_1" xmlns="http://www.w3.org/2000/svg" xmlns:xlink="http://www.w3.org/1999/xlink" x="0px" y="0px"
	 viewBox="0 0 148.2 42.7" style="enable-background:new 0 0 148.2 42.7;" xml:space="preserve">
<style type="text/css">
	.st0{fill:#339900;}
	.st1{fill:#00AEEF;}
</style>
<g>
	<g>
		<path class="st0" d="M13.1,10.7c0,0,14,13.1,28.8,9.5c0,0-0.5,17.8-20.6,21c0,0,13.3-4.8,14.8-17.5C36.1,23.8,19.1,24,13.1,10.7z"
			/>
		<g>
			<path class="st1" d="M23.6,33.3c-0.8-0.6-1.6-1.2-2.3-1.9c-1.4-1.4-2.4-2.9-3.2-4.7c-1.3-0.9-2.5-1.8-3.6-2.8
				c0.7,3.5,2.4,6.7,5,9.3c0.8,0.8,1.7,1.5,2.7,2.2C22.6,34.9,23.1,34.2,23.6,33.3z"/>
			<path class="st1" d="M45,7.8C41.6,4.4,37,2.6,32.2,2.6s-9.3,1.9-12.7,5.3c-1,1-1.8,2-2.5,3.2c0.6,0.5,1.3,1,2.1,1.5
				c0.6-1,1.4-2,2.3-2.8c2.9-2.9,6.8-4.5,10.9-4.5s8,1.6,10.9,4.5c2.9,2.9,4.5,6.8,4.5,10.9s-1.6,8-4.5,10.9
				c-1.4,1.4-3.1,2.5-4.9,3.3c-1.2,1.4-2.5,2.6-3.9,3.6c0,0,0,0-0.1,0c4-0.5,7.8-2.2,10.7-5.2c3.4-3.4,5.3-7.9,5.3-12.7
				C50.2,15.7,48.3,11.2,45,7.8z"/>
		</g>
		<path class="st0" d="M11.8,15.3c0,0,6.7,10.3,21.2,10.6c0,0-1.9,8.7-10.6,12.6c0,0,4.3-4,5.4-10C27.8,28.5,14.9,25.9,11.8,15.3z"
			/>
		<path class="st0" d="M30.1,17.9c0,0,3.1-4.6,10.2-4.4c1.5,0.1,3.2,0.3,5,1.4c0,0-2.7-0.3-3,3C37.8,19.6,30.1,17.9,30.1,17.9z"/>
	</g>
	<g>
		<path class="st0" d="M69.5,14.7v13.1h-3.7v-9.4l-2.4,9.4h-2.5l-2.5-9.4v9.4h-3V14.7h5.2l1.9,7l1.8-7H69.5z"/>
		<path class="st0" d="M81.5,27.8h-3.7c-0.1-0.4-0.1-0.9-0.1-1.4C77,27.5,76,28,74.5,28c-1.2,0-2-0.3-2.6-0.9s-0.9-1.3-0.9-2
			c0-1,0.5-1.9,1.4-2.5c0.9-0.6,2.6-1,5-1.1v-0.2c0-0.4-0.1-0.7-0.3-0.9c-0.2-0.1-0.5-0.2-0.9-0.2c-0.9,0-1.4,0.4-1.5,1.1l-3.5-0.3
			c0.5-2,2.2-3.1,5.1-3.1c0.8,0,1.5,0.1,2.2,0.2c0.6,0.2,1.2,0.4,1.6,0.7c0.4,0.3,0.6,0.7,0.8,1.1s0.2,1.1,0.2,2.1v3.9
			C81.2,26.6,81.3,27.2,81.5,27.8z M77.5,23.2c-1.6,0.2-2.4,0.7-2.4,1.6c0,0.6,0.3,0.9,1,0.9c0.4,0,0.8-0.1,1.1-0.4
			c0.3-0.2,0.4-0.8,0.4-1.6L77.5,23.2L77.5,23.2z"/>
		<path class="st0" d="M86.8,27.8h-3.7V18h3.2v2c0.4-1.5,1.2-2.2,2.5-2.2c0.1,0,0.3,0,0.6,0v3.4c-0.3-0.1-0.5-0.1-0.7-0.1
			c-1.3,0-1.9,0.7-1.9,2.1L86.8,27.8L86.8,27.8z"/>
		<path class="st0" d="M94.5,14.3v3h-3.8v-3H94.5z M94.5,18v9.8h-3.8V18H94.5z"/>
		<path class="st1" d="M107.8,14.7v13.1h-4v-5.1h-3.1v5.1h-4V14.7h4v4.8h3.1v-4.8H107.8z"/>
		<path class="st1" d="M114.7,28c-1.6,0-2.9-0.5-3.9-1.5c-0.9-1-1.4-2.2-1.4-3.5c0-1.5,0.5-2.7,1.5-3.7c1-1,2.3-1.5,3.9-1.5
			c1.6,0,2.9,0.5,3.9,1.4c1,0.9,1.5,2.2,1.5,3.6c0,1.5-0.5,2.7-1.5,3.7C117.6,27.5,116.3,28,114.7,28z M114.7,25.6
			c0.6,0,0.9-0.3,1.1-0.9c0.1-0.6,0.2-1.3,0.2-1.9c0-0.9-0.1-1.6-0.3-2c-0.2-0.4-0.5-0.6-1-0.6c-0.4,0-0.8,0.2-1,0.6
			c-0.2,0.4-0.3,1.1-0.3,2.1c0,1.1,0.1,1.9,0.3,2.2C114,25.5,114.3,25.6,114.7,25.6z"/>
		<path class="st1" d="M120.7,25l3-0.4c0.2,0.7,0.9,1.1,2.1,1.1c1,0,1.5-0.2,1.5-0.6c0-0.2-0.1-0.3-0.3-0.4
			c-0.2-0.1-0.6-0.2-1.4-0.3c-2-0.3-3.2-0.7-3.7-1.3c-0.5-0.6-0.7-1.2-0.7-1.9c0-1,0.4-1.8,1.2-2.4s1.9-0.9,3.3-0.9
			c2.4,0,3.9,0.9,4.5,2.6l-2.9,0.5c-0.3-0.6-0.8-0.9-1.7-0.9c-0.4,0-0.7,0.1-0.9,0.2c-0.2,0.1-0.3,0.2-0.3,0.3
			c0,0.3,0.3,0.5,0.9,0.6c1.6,0.2,2.7,0.4,3.2,0.5c0.6,0.2,1.1,0.5,1.5,1c0.4,0.5,0.6,1.1,0.6,1.8c0,1.1-0.5,1.9-1.3,2.5
			c-0.9,0.6-2.1,0.9-3.7,0.9C123,28,121.4,27,120.7,25z"/>
		<path class="st1" d="M138.1,18v2.5h-1.9v3.6c0,0.5,0.1,0.8,0.3,0.9c0.2,0.1,0.4,0.1,0.6,0.1c0.3,0,0.7-0.1,1.1-0.2v2.7
			c-0.8,0.1-1.5,0.2-2.2,0.2c-1.2,0-2.1-0.2-2.6-0.8c-0.5-0.5-0.8-1.3-0.8-2.4v-1.1v-3.1H131V18h1.5l0.1-3.2l3.6-0.1V18L138.1,18
			L138.1,18z"/>
	</g>
</g>
</svg>
